<?xml version="1.0" encoding="UTF-8"?>
<svg xmlns="http://www.w3.org/2000/svg" xmlns:xlink="http://www.w3.org/1999/xlink" width="5000" height="4500" viewBox="0 0 5000 4500">
<defs>
<clipPath id="clip-0">
<path clip-rule="nonzero" d="M 1983 4309 L 3016 4309 L 3016 4403 L 1983 4403 Z M 1983 4309 "/>
</clipPath>
<clipPath id="clip-1">
<path clip-rule="nonzero" d="M 2499.558594 4402.898438 C 2214.601562 4402.898438 1983.589844 4382.089844 1983.589844 4356.410156 C 1983.589844 4330.730469 2214.601562 4309.921875 2499.558594 4309.921875 C 2784.519531 4309.921875 3015.53125 4330.730469 3015.53125 4356.410156 C 3015.53125 4382.089844 2784.519531 4402.898438 2499.558594 4402.898438 "/>
</clipPath>
<clipPath id="clip-2">
<path clip-rule="nonzero" d="M 2499.558594 4402.898438 C 2214.601562 4402.898438 1983.589844 4382.089844 1983.589844 4356.410156 C 1983.589844 4330.730469 2214.601562 4309.921875 2499.558594 4309.921875 C 2784.519531 4309.921875 3015.53125 4330.730469 3015.53125 4356.410156 C 3015.53125 4382.089844 2784.519531 4402.898438 2499.558594 4402.898438 "/>
</clipPath>
<radialGradient id="radial-pattern-0" gradientUnits="userSpaceOnUse" cx="0" cy="0" fx="0" fy="0" r="281.2178" gradientTransform="matrix(1.834674, 0, 0, 0.165326, 2499.56, 4356.41)">
<stop offset="0" stop-color="rgb(59.002686%, 59.394836%, 59.313965%)" stop-opacity="1"/>
<stop offset="0.0078125" stop-color="rgb(59.121704%, 59.632874%, 59.577942%)" stop-opacity="1"/>
<stop offset="0.0117188" stop-color="rgb(59.20105%, 59.791565%, 59.753418%)" stop-opacity="1"/>
<stop offset="0.015625" stop-color="rgb(59.346008%, 59.94873%, 59.941101%)" stop-opacity="1"/>
<stop offset="0.0195312" stop-color="rgb(59.562683%, 60.10437%, 60.139465%)" stop-opacity="1"/>
<stop offset="0.0234375" stop-color="rgb(59.785461%, 60.26001%, 60.340881%)" stop-opacity="1"/>
<stop offset="0.0273438" stop-color="rgb(60.005188%, 60.414124%, 60.540771%)" stop-opacity="1"/>
<stop offset="0.03125" stop-color="rgb(60.206604%, 60.546875%, 60.688782%)" stop-opacity="1"/>
<stop offset="0.0351562" stop-color="rgb(60.380554%, 60.652161%, 60.777283%)" stop-opacity="1"/>
<stop offset="0.0390625" stop-color="rgb(60.552979%, 60.75592%, 60.85968%)" stop-opacity="1"/>
<stop offset="0.0429688" stop-color="rgb(60.723877%, 60.85968%, 60.942078%)" stop-opacity="1"/>
<stop offset="0.046875" stop-color="rgb(60.894775%, 60.992432%, 61.062622%)" stop-opacity="1"/>
<stop offset="0.0507812" stop-color="rgb(61.064148%, 61.16333%, 61.227417%)" stop-opacity="1"/>
<stop offset="0.0546875" stop-color="rgb(61.233521%, 61.341858%, 61.404419%)" stop-opacity="1"/>
<stop offset="0.0585938" stop-color="rgb(61.402893%, 61.51886%, 61.579895%)" stop-opacity="1"/>
<stop offset="0.0625" stop-color="rgb(61.572266%, 61.697388%, 61.732483%)" stop-opacity="1"/>
<stop offset="0.0664062" stop-color="rgb(61.743164%, 61.875916%, 61.849976%)" stop-opacity="1"/>
<stop offset="0.0703125" stop-color="rgb(61.912537%, 62.054443%, 61.959839%)" stop-opacity="1"/>
<stop offset="0.0742188" stop-color="rgb(62.083435%, 62.234497%, 62.069702%)" stop-opacity="1"/>
<stop offset="0.078125" stop-color="rgb(62.243652%, 62.402344%, 62.216187%)" stop-opacity="1"/>
<stop offset="0.0820312" stop-color="rgb(62.387085%, 62.553406%, 62.411499%)" stop-opacity="1"/>
<stop offset="0.0859375" stop-color="rgb(62.524414%, 62.698364%, 62.625122%)" stop-opacity="1"/>
<stop offset="0.0898438" stop-color="rgb(62.661743%, 62.843323%, 62.837219%)" stop-opacity="1"/>
<stop offset="0.09375" stop-color="rgb(62.837219%, 63.005066%, 63.038635%)" stop-opacity="1"/>
<stop offset="0.0976562" stop-color="rgb(63.07373%, 63.194275%, 63.221741%)" stop-opacity="1"/>
<stop offset="0.101562" stop-color="rgb(63.334656%, 63.392639%, 63.398743%)" stop-opacity="1"/>
<stop offset="0.105469" stop-color="rgb(63.595581%, 63.592529%, 63.577271%)" stop-opacity="1"/>
<stop offset="0.109375" stop-color="rgb(63.830566%, 63.809204%, 63.764954%)" stop-opacity="1"/>
<stop offset="0.113281" stop-color="rgb(64.022827%, 64.054871%, 63.969421%)" stop-opacity="1"/>
<stop offset="0.117188" stop-color="rgb(64.1922%, 64.31427%, 64.179993%)" stop-opacity="1"/>
<stop offset="0.121094" stop-color="rgb(64.364624%, 64.575195%, 64.39209%)" stop-opacity="1"/>
<stop offset="0.125" stop-color="rgb(64.558411%, 64.822388%, 64.596558%)" stop-opacity="1"/>
<stop offset="0.128906" stop-color="rgb(64.797974%, 65.040588%, 64.787292%)" stop-opacity="1"/>
<stop offset="0.132812" stop-color="rgb(65.060425%, 65.245056%, 64.968872%)" stop-opacity="1"/>
<stop offset="0.136719" stop-color="rgb(65.324402%, 65.449524%, 65.153503%)" stop-opacity="1"/>
<stop offset="0.140625" stop-color="rgb(65.568542%, 65.65094%, 65.338135%)" stop-opacity="1"/>
<stop offset="0.144531" stop-color="rgb(65.769958%, 65.846252%, 65.525818%)" stop-opacity="1"/>
<stop offset="0.148438" stop-color="rgb(65.943909%, 66.033936%, 65.715027%)" stop-opacity="1"/>
<stop offset="0.152344" stop-color="rgb(66.119385%, 66.22467%, 65.905762%)" stop-opacity="1"/>
<stop offset="0.15625" stop-color="rgb(66.294861%, 66.400146%, 66.078186%)" stop-opacity="1"/>
<stop offset="0.160156" stop-color="rgb(66.471863%, 66.537476%, 66.200256%)" stop-opacity="1"/>
<stop offset="0.164062" stop-color="rgb(66.648865%, 66.651917%, 66.293335%)" stop-opacity="1"/>
<stop offset="0.167969" stop-color="rgb(66.827393%, 66.764832%, 66.384888%)" stop-opacity="1"/>
<stop offset="0.171875" stop-color="rgb(67.004395%, 66.888428%, 66.491699%)" stop-opacity="1"/>
<stop offset="0.175781" stop-color="rgb(67.181396%, 67.054749%, 66.650391%)" stop-opacity="1"/>
<stop offset="0.179688" stop-color="rgb(67.356873%, 67.245483%, 66.842651%)" stop-opacity="1"/>
<stop offset="0.183594" stop-color="rgb(67.5354%, 67.43927%, 67.036438%)" stop-opacity="1"/>
<stop offset="0.1875" stop-color="rgb(67.710876%, 67.631531%, 67.230225%)" stop-opacity="1"/>
<stop offset="0.191406" stop-color="rgb(67.889404%, 67.825317%, 67.425537%)" stop-opacity="1"/>
<stop offset="0.195312" stop-color="rgb(68.06488%, 68.019104%, 67.62085%)" stop-opacity="1"/>
<stop offset="0.199219" stop-color="rgb(68.243408%, 68.214417%, 67.817688%)" stop-opacity="1"/>
<stop offset="0.203125" stop-color="rgb(68.42041%, 68.408203%, 68.013%)" stop-opacity="1"/>
<stop offset="0.207031" stop-color="rgb(68.598938%, 68.603516%, 68.211365%)" stop-opacity="1"/>
<stop offset="0.210938" stop-color="rgb(68.77594%, 68.798828%, 68.408203%)" stop-opacity="1"/>
<stop offset="0.214844" stop-color="rgb(68.955994%, 68.995667%, 68.606567%)" stop-opacity="1"/>
<stop offset="0.21875" stop-color="rgb(69.128418%, 69.186401%, 68.803406%)" stop-opacity="1"/>
<stop offset="0.222656" stop-color="rgb(69.258118%, 69.329834%, 68.989563%)" stop-opacity="1"/>
<stop offset="0.226562" stop-color="rgb(69.346619%, 69.430542%, 69.163513%)" stop-opacity="1"/>
<stop offset="0.230469" stop-color="rgb(69.436646%, 69.529724%, 69.337463%)" stop-opacity="1"/>
<stop offset="0.234375" stop-color="rgb(69.526672%, 69.631958%, 69.509888%)" stop-opacity="1"/>
<stop offset="0.238281" stop-color="rgb(69.664001%, 69.78302%, 69.659424%)" stop-opacity="1"/>
<stop offset="0.242188" stop-color="rgb(69.842529%, 69.979858%, 69.787598%)" stop-opacity="1"/>
<stop offset="0.246094" stop-color="rgb(70.024109%, 70.178223%, 69.915771%)" stop-opacity="1"/>
<stop offset="0.25" stop-color="rgb(70.202637%, 70.375061%, 70.043945%)" stop-opacity="1"/>
<stop offset="0.253906" stop-color="rgb(70.474243%, 70.594788%, 70.207214%)" stop-opacity="1"/>
<stop offset="0.261719" stop-color="rgb(70.835876%, 70.834351%, 70.405579%)" stop-opacity="1"/>
<stop offset="0.269531" stop-color="rgb(71.19751%, 71.153259%, 70.704651%)" stop-opacity="1"/>
<stop offset="0.277344" stop-color="rgb(71.559143%, 71.554565%, 71.113586%)" stop-opacity="1"/>
<stop offset="0.285156" stop-color="rgb(71.922302%, 71.885681%, 71.499634%)" stop-opacity="1"/>
<stop offset="0.292969" stop-color="rgb(72.285461%, 72.138977%, 71.856689%)" stop-opacity="1"/>
<stop offset="0.300781" stop-color="rgb(72.650146%, 72.45636%, 72.172546%)" stop-opacity="1"/>
<stop offset="0.308594" stop-color="rgb(73.014832%, 72.85614%, 72.444153%)" stop-opacity="1"/>
<stop offset="0.316406" stop-color="rgb(73.381042%, 73.196411%, 72.75238%)" stop-opacity="1"/>
<stop offset="0.324219" stop-color="rgb(73.745728%, 73.458862%, 73.109436%)" stop-opacity="1"/>
<stop offset="0.332031" stop-color="rgb(74.113464%, 73.777771%, 73.434448%)" stop-opacity="1"/>
<stop offset="0.339844" stop-color="rgb(74.481201%, 74.177551%, 73.71521%)" stop-opacity="1"/>
<stop offset="0.347656" stop-color="rgb(74.848938%, 74.526978%, 73.965454%)" stop-opacity="1"/>
<stop offset="0.355469" stop-color="rgb(75.216675%, 74.795532%, 74.183655%)" stop-opacity="1"/>
<stop offset="0.363281" stop-color="rgb(75.585938%, 75.112915%, 74.481201%)" stop-opacity="1"/>
<stop offset="0.371094" stop-color="rgb(75.956726%, 75.517273%, 74.891663%)" stop-opacity="1"/>
<stop offset="0.378906" stop-color="rgb(76.25885%, 75.863647%, 75.306702%)" stop-opacity="1"/>
<stop offset="0.386719" stop-color="rgb(76.469421%, 76.107788%, 75.692749%)" stop-opacity="1"/>
<stop offset="0.394531" stop-color="rgb(76.646423%, 76.296997%, 75.965881%)" stop-opacity="1"/>
<stop offset="0.398438" stop-color="rgb(76.870728%, 76.493835%, 76.123047%)" stop-opacity="1"/>
<stop offset="0.402344" stop-color="rgb(77.148438%, 76.728821%, 76.264954%)" stop-opacity="1"/>
<stop offset="0.40625" stop-color="rgb(77.427673%, 76.963806%, 76.40686%)" stop-opacity="1"/>
<stop offset="0.410156" stop-color="rgb(77.723694%, 77.288818%, 76.675415%)" stop-opacity="1"/>
<stop offset="0.417969" stop-color="rgb(77.973938%, 77.690125%, 77.099609%)" stop-opacity="1"/>
<stop offset="0.425781" stop-color="rgb(78.222656%, 78.038025%, 77.478027%)" stop-opacity="1"/>
<stop offset="0.433594" stop-color="rgb(78.564453%, 78.323364%, 77.74353%)" stop-opacity="1"/>
<stop offset="0.441406" stop-color="rgb(78.938293%, 78.640747%, 78.039551%)" stop-opacity="1"/>
<stop offset="0.449219" stop-color="rgb(79.315186%, 79.046631%, 78.453064%)" stop-opacity="1"/>
<stop offset="0.457031" stop-color="rgb(79.692078%, 79.43573%, 78.845215%)" stop-opacity="1"/>
<stop offset="0.464844" stop-color="rgb(80.06897%, 79.740906%, 79.124451%)" stop-opacity="1"/>
<stop offset="0.472656" stop-color="rgb(80.444336%, 80.056763%, 79.418945%)" stop-opacity="1"/>
<stop offset="0.480469" stop-color="rgb(80.82428%, 80.462646%, 79.832458%)" stop-opacity="1"/>
<stop offset="0.488281" stop-color="rgb(81.20575%, 80.909729%, 80.300903%)" stop-opacity="1"/>
<stop offset="0.496094" stop-color="rgb(81.587219%, 81.358337%, 80.770874%)" stop-opacity="1"/>
<stop offset="0.503906" stop-color="rgb(81.874084%, 81.695557%, 81.124878%)" stop-opacity="1"/>
<stop offset="0.507812" stop-color="rgb(82.064819%, 81.880188%, 81.34613%)" stop-opacity="1"/>
<stop offset="0.511719" stop-color="rgb(82.252502%, 82.022095%, 81.549072%)" stop-opacity="1"/>
<stop offset="0.515625" stop-color="rgb(82.443237%, 82.162476%, 81.752014%)" stop-opacity="1"/>
<stop offset="0.519531" stop-color="rgb(82.63092%, 82.302856%, 81.954956%)" stop-opacity="1"/>
<stop offset="0.523438" stop-color="rgb(82.873535%, 82.543945%, 82.240295%)" stop-opacity="1"/>
<stop offset="0.535156" stop-color="rgb(83.071899%, 82.774353%, 82.485962%)" stop-opacity="1"/>
<stop offset="0.539062" stop-color="rgb(83.209229%, 82.93457%, 82.621765%)" stop-opacity="1"/>
<stop offset="0.542969" stop-color="rgb(83.39386%, 83.151245%, 82.777405%)" stop-opacity="1"/>
<stop offset="0.546875" stop-color="rgb(83.587646%, 83.378601%, 82.93457%)" stop-opacity="1"/>
<stop offset="0.550781" stop-color="rgb(83.779907%, 83.604431%, 83.091736%)" stop-opacity="1"/>
<stop offset="0.554688" stop-color="rgb(83.972168%, 83.798218%, 83.236694%)" stop-opacity="1"/>
<stop offset="0.558594" stop-color="rgb(84.162903%, 83.94928%, 83.364868%)" stop-opacity="1"/>
<stop offset="0.5625" stop-color="rgb(84.353638%, 84.089661%, 83.486938%)" stop-opacity="1"/>
<stop offset="0.566406" stop-color="rgb(84.544373%, 84.230042%, 83.610535%)" stop-opacity="1"/>
<stop offset="0.570312" stop-color="rgb(84.736633%, 84.402466%, 83.778381%)" stop-opacity="1"/>
<stop offset="0.574219" stop-color="rgb(84.928894%, 84.620667%, 84.005737%)" stop-opacity="1"/>
<stop offset="0.578125" stop-color="rgb(85.124207%, 84.854126%, 84.251404%)" stop-opacity="1"/>
<stop offset="0.582031" stop-color="rgb(85.317993%, 85.08606%, 84.498596%)" stop-opacity="1"/>
<stop offset="0.585938" stop-color="rgb(85.513306%, 85.290527%, 84.706116%)" stop-opacity="1"/>
<stop offset="0.589844" stop-color="rgb(85.704041%, 85.449219%, 84.854126%)" stop-opacity="1"/>
<stop offset="0.59375" stop-color="rgb(85.896301%, 85.592651%, 84.979248%)" stop-opacity="1"/>
<stop offset="0.597656" stop-color="rgb(86.087036%, 85.734558%, 85.10437%)" stop-opacity="1"/>
<stop offset="0.601562" stop-color="rgb(86.347961%, 85.987854%, 85.354614%)" stop-opacity="1"/>
<stop offset="0.613281" stop-color="rgb(86.564636%, 86.228943%, 85.606384%)" stop-opacity="1"/>
<stop offset="0.617188" stop-color="rgb(86.688232%, 86.378479%, 85.765076%)" stop-opacity="1"/>
<stop offset="0.621094" stop-color="rgb(86.860657%, 86.585999%, 85.984802%)" stop-opacity="1"/>
<stop offset="0.625" stop-color="rgb(87.057495%, 86.82251%, 86.238098%)" stop-opacity="1"/>
<stop offset="0.628906" stop-color="rgb(87.350464%, 87.158203%, 86.58905%)" stop-opacity="1"/>
<stop offset="0.636719" stop-color="rgb(87.739563%, 87.519836%, 86.943054%)" stop-opacity="1"/>
<stop offset="0.644531" stop-color="rgb(88.1073%, 87.823486%, 87.210083%)" stop-opacity="1"/>
<stop offset="0.652344" stop-color="rgb(88.38501%, 88.192749%, 87.512207%)" stop-opacity="1"/>
<stop offset="0.660156" stop-color="rgb(88.589478%, 88.597107%, 87.852478%)" stop-opacity="1"/>
<stop offset="0.667969" stop-color="rgb(88.792419%, 88.917542%, 88.246155%)" stop-opacity="1"/>
<stop offset="0.675781" stop-color="rgb(89.002991%, 89.167786%, 88.668823%)" stop-opacity="1"/>
<stop offset="0.683594" stop-color="rgb(89.309692%, 89.445496%, 89.009094%)" stop-opacity="1"/>
<stop offset="0.691406" stop-color="rgb(89.697266%, 89.741516%, 89.274597%)" stop-opacity="1"/>
<stop offset="0.699219" stop-color="rgb(90.084839%, 90.040588%, 89.543152%)" stop-opacity="1"/>
<stop offset="0.707031" stop-color="rgb(90.466309%, 90.344238%, 89.813232%)" stop-opacity="1"/>
<stop offset="0.714844" stop-color="rgb(90.760803%, 90.711975%, 90.12146%)" stop-opacity="1"/>
<stop offset="0.722656" stop-color="rgb(90.9729%, 91.136169%, 90.466309%)" stop-opacity="1"/>
<stop offset="0.730469" stop-color="rgb(91.27655%, 91.505432%, 90.866089%)" stop-opacity="1"/>
<stop offset="0.738281" stop-color="rgb(91.665649%, 91.815186%, 91.317749%)" stop-opacity="1"/>
<stop offset="0.746094" stop-color="rgb(92.062378%, 92.219543%, 91.815186%)" stop-opacity="1"/>
<stop offset="0.761719" stop-color="rgb(92.358398%, 92.54303%, 92.152405%)" stop-opacity="1"/>
<stop offset="0.765625" stop-color="rgb(92.552185%, 92.697144%, 92.292786%)" stop-opacity="1"/>
<stop offset="0.769531" stop-color="rgb(92.749023%, 92.849731%, 92.430115%)" stop-opacity="1"/>
<stop offset="0.773438" stop-color="rgb(92.944336%, 93.002319%, 92.56897%)" stop-opacity="1"/>
<stop offset="0.777344" stop-color="rgb(93.09845%, 93.145752%, 92.747498%)" stop-opacity="1"/>
<stop offset="0.78125" stop-color="rgb(93.205261%, 93.276978%, 92.970276%)" stop-opacity="1"/>
<stop offset="0.785156" stop-color="rgb(93.305969%, 93.406677%, 93.197632%)" stop-opacity="1"/>
<stop offset="0.789062" stop-color="rgb(93.406677%, 93.534851%, 93.424988%)" stop-opacity="1"/>
<stop offset="0.792969" stop-color="rgb(93.545532%, 93.675232%, 93.618774%)" stop-opacity="1"/>
<stop offset="0.796875" stop-color="rgb(93.734741%, 93.829346%, 93.768311%)" stop-opacity="1"/>
<stop offset="0.800781" stop-color="rgb(93.93158%, 93.983459%, 93.908691%)" stop-opacity="1"/>
<stop offset="0.804688" stop-color="rgb(94.128418%, 94.137573%, 94.049072%)" stop-opacity="1"/>
<stop offset="0.808594" stop-color="rgb(94.325256%, 94.294739%, 94.226074%)" stop-opacity="1"/>
<stop offset="0.8125" stop-color="rgb(94.522095%, 94.454956%, 94.450378%)" stop-opacity="1"/>
<stop offset="0.816406" stop-color="rgb(94.818115%, 94.694519%, 94.802856%)" stop-opacity="1"/>
<stop offset="0.824219" stop-color="rgb(95.217896%, 95.091248%, 95.231628%)" stop-opacity="1"/>
<stop offset="0.832031" stop-color="rgb(95.623779%, 95.581055%, 95.610046%)" stop-opacity="1"/>
<stop offset="0.839844" stop-color="rgb(95.947266%, 95.982361%, 95.94574%)" stop-opacity="1"/>
<stop offset="0.847656" stop-color="rgb(96.273804%, 96.391296%, 96.376038%)" stop-opacity="1"/>
<stop offset="0.863281" stop-color="rgb(96.682739%, 96.907043%, 96.940613%)" stop-opacity="1"/>
<stop offset="0.878906" stop-color="rgb(97.061157%, 97.343445%, 97.407532%)" stop-opacity="1"/>
<stop offset="0.890625" stop-color="rgb(97.331238%, 97.55249%, 97.595215%)" stop-opacity="1"/>
<stop offset="0.894531" stop-color="rgb(97.523499%, 97.613525%, 97.605896%)" stop-opacity="1"/>
<stop offset="0.898438" stop-color="rgb(97.715759%, 97.673035%, 97.616577%)" stop-opacity="1"/>
<stop offset="0.902344" stop-color="rgb(97.993469%, 97.879028%, 97.796631%)" stop-opacity="1"/>
<stop offset="0.914062" stop-color="rgb(98.278809%, 98.184204%, 98.11554%)" stop-opacity="1"/>
<stop offset="0.921875" stop-color="rgb(98.484802%, 98.443604%, 98.400879%)" stop-opacity="1"/>
<stop offset="0.929688" stop-color="rgb(98.794556%, 98.83728%, 98.834229%)" stop-opacity="1"/>
<stop offset="0.945312" stop-color="rgb(99.156189%, 99.29657%, 99.339294%)" stop-opacity="1"/>
<stop offset="0.957031" stop-color="rgb(99.414062%, 99.62616%, 99.702454%)" stop-opacity="1"/>
<stop offset="0.964844" stop-color="rgb(99.714661%, 99.865723%, 99.92218%)" stop-opacity="1"/>
<stop offset="0.980469" stop-color="rgb(99.95575%, 99.984741%, 99.996948%)" stop-opacity="1"/>
<stop offset="1" stop-color="rgb(100%, 100%, 100%)" stop-opacity="1"/>
</radialGradient>
</defs>
<path fill-rule="nonzero" fill="rgb(12.860107%, 11.213684%, 11.195374%)" fill-opacity="1" d="M 1838.480469 223.359375 L 1874.121094 223.359375 C 1880.238281 223.359375 1884.539062 223.140625 1887.011719 222.679688 C 1891.371094 221.898438 1895.019531 220.601562 1897.949219 218.769531 C 1900.878906 216.949219 1903.289062 214.300781 1905.179688 210.820312 C 1907.058594 207.328125 1908.011719 203.308594 1908.011719 198.761719 C 1908.011719 193.421875 1906.640625 188.78125 1903.910156 184.839844 C 1901.171875 180.898438 1897.378906 178.140625 1892.53125 176.539062 C 1887.679688 174.941406 1880.699219 174.148438 1871.578125 174.148438 L 1838.480469 174.148438 Z M 1838.480469 157.25 L 1869.429688 157.25 C 1877.828125 157.25 1883.851562 156.699219 1887.5 155.589844 C 1892.320312 154.160156 1895.949219 151.78125 1898.390625 148.460938 C 1900.828125 145.140625 1902.050781 140.980469 1902.050781 135.960938 C 1902.050781 131.210938 1900.910156 127.03125 1898.628906 123.410156 C 1896.351562 119.800781 1893.101562 117.328125 1888.871094 115.988281 C 1884.628906 114.660156 1877.378906 113.988281 1867.089844 113.988281 L 1838.480469 113.988281 Z M 1819.53125 240.261719 L 1819.53125 97.101562 L 1873.238281 97.101562 C 1884.179688 97.101562 1892.949219 98.539062 1899.558594 101.441406 C 1906.171875 104.339844 1911.339844 108.800781 1915.089844 114.820312 C 1918.828125 120.839844 1920.699219 127.140625 1920.699219 133.71875 C 1920.699219 139.839844 1919.039062 145.601562 1915.71875 151 C 1912.398438 156.410156 1907.390625 160.769531 1900.679688 164.089844 C 1909.339844 166.628906 1916 170.960938 1920.648438 177.078125 C 1925.308594 183.199219 1927.640625 190.421875 1927.640625 198.761719 C 1927.640625 205.460938 1926.21875 211.691406 1923.390625 217.460938 C 1920.558594 223.21875 1917.058594 227.660156 1912.890625 230.789062 C 1908.71875 233.910156 1903.5 236.269531 1897.21875 237.871094 C 1890.929688 239.460938 1883.238281 240.261719 1874.121094 240.261719 L 1819.53125 240.261719 "/>
<path fill-rule="nonzero" fill="rgb(12.860107%, 11.213684%, 11.195374%)" fill-opacity="1" d="M 1951.070312 240.261719 L 1951.070312 97.101562 L 1968.648438 97.101562 L 1968.648438 240.261719 L 1951.070312 240.261719 "/>
<path fill-rule="nonzero" fill="rgb(12.860107%, 11.213684%, 11.195374%)" fill-opacity="1" d="M 2062.109375 188.210938 C 2055.730469 190.808594 2046.160156 193.03125 2033.398438 194.851562 C 2026.171875 195.890625 2021.058594 197.058594 2018.070312 198.359375 C 2015.070312 199.671875 2012.761719 201.570312 2011.128906 204.078125 C 2009.5 206.578125 2008.691406 209.371094 2008.691406 212.429688 C 2008.691406 217.109375 2010.460938 221.019531 2014.011719 224.148438 C 2017.558594 227.269531 2022.75 228.828125 2029.589844 228.828125 C 2036.359375 228.828125 2042.378906 227.351562 2047.660156 224.390625 C 2052.929688 221.429688 2056.800781 217.371094 2059.28125 212.230469 C 2061.171875 208.261719 2062.109375 202.398438 2062.109375 194.648438 Z M 2063.570312 227.46875 C 2057.058594 233 2050.800781 236.910156 2044.78125 239.191406 C 2038.75 241.460938 2032.289062 242.601562 2025.390625 242.601562 C 2014 242.601562 2005.238281 239.820312 1999.121094 234.25 C 1993 228.691406 1989.941406 221.570312 1989.941406 212.921875 C 1989.941406 207.839844 1991.101562 203.199219 1993.410156 199 C 1995.71875 194.800781 1998.75 191.429688 2002.488281 188.890625 C 2006.230469 186.351562 2010.449219 184.429688 2015.140625 183.128906 C 2018.589844 182.21875 2023.789062 181.339844 2030.761719 180.488281 C 2044.949219 178.800781 2055.398438 176.78125 2062.109375 174.441406 C 2062.171875 172.03125 2062.210938 170.5 2062.210938 169.851562 C 2062.210938 162.691406 2060.550781 157.640625 2057.230469 154.710938 C 2052.730469 150.738281 2046.058594 148.761719 2037.210938 148.761719 C 2028.941406 148.761719 2022.828125 150.210938 2018.898438 153.101562 C 2014.960938 156 2012.039062 161.121094 2010.160156 168.480469 L 1992.96875 166.140625 C 1994.53125 158.78125 1997.101562 152.839844 2000.679688 148.320312 C 2004.261719 143.789062 2009.441406 140.308594 2016.210938 137.871094 C 2022.980469 135.421875 2030.828125 134.210938 2039.75 134.210938 C 2048.601562 134.210938 2055.789062 135.25 2061.328125 137.328125 C 2066.859375 139.410156 2070.929688 142.03125 2073.539062 145.191406 C 2076.140625 148.351562 2077.960938 152.339844 2079 157.148438 C 2079.589844 160.148438 2079.878906 165.550781 2079.878906 173.359375 L 2079.878906 196.800781 C 2079.878906 213.140625 2080.261719 223.480469 2081.011719 227.808594 C 2081.75 232.140625 2083.238281 236.289062 2085.449219 240.261719 L 2067.089844 240.261719 C 2065.269531 236.609375 2064.089844 232.351562 2063.570312 227.46875 "/>
<path fill-rule="nonzero" fill="rgb(12.860107%, 11.213684%, 11.195374%)" fill-opacity="1" d="M 2174.800781 202.269531 L 2192.089844 204.519531 C 2190.199219 216.429688 2185.371094 225.761719 2177.589844 232.5 C 2169.808594 239.230469 2160.25 242.601562 2148.929688 242.601562 C 2134.730469 242.601562 2123.320312 237.960938 2114.699219 228.691406 C 2106.070312 219.410156 2101.761719 206.109375 2101.761719 188.789062 C 2101.761719 177.601562 2103.609375 167.800781 2107.320312 159.398438 C 2111.039062 151 2116.679688 144.699219 2124.269531 140.5 C 2131.851562 136.300781 2140.101562 134.210938 2149.019531 134.210938 C 2160.289062 134.210938 2169.5 137.050781 2176.660156 142.75 C 2183.820312 148.449219 2188.410156 156.539062 2190.429688 167.019531 L 2173.339844 169.648438 C 2171.710938 162.691406 2168.828125 157.449219 2164.699219 153.929688 C 2160.558594 150.421875 2155.570312 148.660156 2149.710938 148.660156 C 2140.851562 148.660156 2133.660156 151.828125 2128.128906 158.179688 C 2122.589844 164.53125 2119.820312 174.570312 2119.820312 188.308594 C 2119.820312 202.238281 2122.488281 212.359375 2127.828125 218.679688 C 2133.171875 224.988281 2140.140625 228.148438 2148.730469 228.148438 C 2155.628906 228.148438 2161.390625 226.039062 2166.019531 221.800781 C 2170.640625 217.570312 2173.570312 211.058594 2174.800781 202.269531 "/>
<path fill-rule="nonzero" fill="rgb(12.860107%, 11.213684%, 11.195374%)" fill-opacity="1" d="M 2207.230469 240.261719 L 2207.230469 97.101562 L 2224.800781 97.101562 L 2224.800781 178.738281 L 2266.410156 136.550781 L 2289.160156 136.550781 L 2249.511719 175.019531 L 2293.160156 240.261719 L 2271.480469 240.261719 L 2237.210938 187.230469 L 2224.800781 199.148438 L 2224.800781 240.261719 L 2207.230469 240.261719 "/>
<path fill-rule="nonzero" fill="rgb(12.860107%, 11.213684%, 11.195374%)" fill-opacity="1" d="M 2300.101562 209.300781 L 2317.480469 206.570312 C 2318.460938 213.539062 2321.171875 218.871094 2325.628906 222.578125 C 2330.089844 226.289062 2336.328125 228.148438 2344.339844 228.148438 C 2352.410156 228.148438 2358.398438 226.511719 2362.300781 223.21875 C 2366.210938 219.929688 2368.160156 216.070312 2368.160156 211.648438 C 2368.160156 207.679688 2366.441406 204.550781 2362.988281 202.269531 C 2360.578125 200.710938 2354.589844 198.71875 2345.019531 196.308594 C 2332.128906 193.058594 2323.191406 190.238281 2318.210938 187.871094 C 2313.230469 185.488281 2309.460938 182.199219 2306.878906 178 C 2304.308594 173.800781 2303.03125 169.171875 2303.03125 164.089844 C 2303.03125 159.460938 2304.078125 155.191406 2306.199219 151.25 C 2308.320312 147.308594 2311.199219 144.039062 2314.839844 141.429688 C 2317.578125 139.410156 2321.300781 137.710938 2326.03125 136.300781 C 2330.75 134.910156 2335.808594 134.210938 2341.210938 134.210938 C 2349.351562 134.210938 2356.488281 135.378906 2362.648438 137.71875 C 2368.800781 140.058594 2373.339844 143.238281 2376.269531 147.238281 C 2379.199219 151.25 2381.21875 156.601562 2382.320312 163.308594 L 2365.140625 165.648438 C 2364.359375 160.308594 2362.089844 156.140625 2358.351562 153.148438 C 2354.601562 150.160156 2349.320312 148.660156 2342.480469 148.660156 C 2334.410156 148.660156 2328.648438 149.988281 2325.199219 152.660156 C 2321.738281 155.328125 2320.019531 158.460938 2320.019531 162.039062 C 2320.019531 164.320312 2320.738281 166.371094 2322.171875 168.191406 C 2323.601562 170.078125 2325.851562 171.640625 2328.910156 172.878906 C 2330.660156 173.53125 2335.839844 175.019531 2344.429688 177.371094 C 2356.871094 180.691406 2365.539062 183.410156 2370.460938 185.519531 C 2375.371094 187.640625 2379.230469 190.710938 2382.03125 194.75 C 2384.828125 198.789062 2386.230469 203.800781 2386.230469 209.789062 C 2386.230469 215.648438 2384.519531 221.171875 2381.101562 226.339844 C 2377.691406 231.519531 2372.75 235.519531 2366.308594 238.359375 C 2359.859375 241.191406 2352.570312 242.601562 2344.429688 242.601562 C 2330.960938 242.601562 2320.691406 239.808594 2313.621094 234.210938 C 2306.558594 228.609375 2302.050781 220.308594 2300.101562 209.300781 "/>
<path fill-rule="nonzero" fill="rgb(12.860107%, 11.213684%, 11.195374%)" fill-opacity="1" d="M 2407.128906 240.261719 L 2407.128906 136.550781 L 2422.851562 136.550781 L 2422.851562 151.101562 C 2426.109375 146.019531 2430.441406 141.941406 2435.839844 138.839844 C 2441.238281 135.75 2447.398438 134.210938 2454.300781 134.210938 C 2461.980469 134.210938 2468.28125 135.800781 2473.191406 138.988281 C 2478.109375 142.179688 2481.578125 146.640625 2483.589844 152.371094 C 2491.800781 140.261719 2502.46875 134.210938 2515.628906 134.210938 C 2525.910156 134.210938 2533.820312 137.050781 2539.359375 142.75 C 2544.890625 148.449219 2547.660156 157.21875 2547.660156 169.070312 L 2547.660156 240.261719 L 2530.179688 240.261719 L 2530.179688 174.929688 C 2530.179688 167.898438 2529.609375 162.828125 2528.46875 159.738281 C 2527.328125 156.648438 2525.261719 154.160156 2522.269531 152.269531 C 2519.269531 150.378906 2515.75 149.441406 2511.71875 149.441406 C 2504.429688 149.441406 2498.371094 151.859375 2493.550781 156.710938 C 2488.738281 161.558594 2486.328125 169.328125 2486.328125 180.011719 L 2486.328125 240.261719 L 2468.75 240.261719 L 2468.75 172.878906 C 2468.75 165.058594 2467.320312 159.210938 2464.449219 155.300781 C 2461.589844 151.390625 2456.898438 149.441406 2450.390625 149.441406 C 2445.441406 149.441406 2440.871094 150.738281 2436.671875 153.339844 C 2432.46875 155.949219 2429.429688 159.761719 2427.539062 164.769531 C 2425.648438 169.789062 2424.710938 177.011719 2424.710938 186.449219 L 2424.710938 240.261719 L 2407.128906 240.261719 "/>
<path fill-rule="nonzero" fill="rgb(12.860107%, 11.213684%, 11.195374%)" fill-opacity="1" d="M 2573.828125 240.261719 L 2573.828125 136.550781 L 2591.410156 136.550781 L 2591.410156 240.261719 Z M 2573.828125 117.308594 L 2573.828125 97.101562 L 2591.410156 97.101562 L 2591.410156 117.308594 L 2573.828125 117.308594 "/>
<path fill-rule="nonzero" fill="rgb(12.860107%, 11.213684%, 11.195374%)" fill-opacity="1" d="M 2656.539062 224.539062 L 2659.078125 240.058594 C 2654.128906 241.101562 2649.710938 241.628906 2645.800781 241.628906 C 2639.421875 241.628906 2634.46875 240.621094 2630.960938 238.601562 C 2627.441406 236.578125 2624.96875 233.929688 2623.539062 230.640625 C 2622.101562 227.351562 2621.390625 220.441406 2621.390625 209.890625 L 2621.390625 150.21875 L 2608.5 150.21875 L 2608.5 136.550781 L 2621.390625 136.550781 L 2621.390625 110.859375 L 2638.871094 100.320312 L 2638.871094 136.550781 L 2656.539062 136.550781 L 2656.539062 150.21875 L 2638.871094 150.21875 L 2638.871094 210.859375 C 2638.871094 215.878906 2639.179688 219.101562 2639.789062 220.53125 C 2640.410156 221.960938 2641.421875 223.109375 2642.820312 223.949219 C 2644.21875 224.800781 2646.21875 225.21875 2648.828125 225.21875 C 2650.78125 225.21875 2653.351562 224.988281 2656.539062 224.539062 "/>
<path fill-rule="nonzero" fill="rgb(12.860107%, 11.213684%, 11.195374%)" fill-opacity="1" d="M 2673.730469 240.261719 L 2673.730469 97.101562 L 2691.308594 97.101562 L 2691.308594 148.460938 C 2699.511719 138.960938 2709.859375 134.210938 2722.359375 134.210938 C 2730.039062 134.210938 2736.71875 135.71875 2742.378906 138.75 C 2748.050781 141.769531 2752.101562 145.960938 2754.539062 151.289062 C 2756.980469 156.628906 2758.199219 164.378906 2758.199219 174.539062 L 2758.199219 240.261719 L 2740.628906 240.261719 L 2740.628906 174.539062 C 2740.628906 165.75 2738.71875 159.351562 2734.910156 155.351562 C 2731.101562 151.339844 2725.71875 149.339844 2718.75 149.339844 C 2713.539062 149.339844 2708.640625 150.691406 2704.050781 153.390625 C 2699.460938 156.101562 2696.191406 159.761719 2694.238281 164.378906 C 2692.289062 169 2691.308594 175.378906 2691.308594 183.519531 L 2691.308594 240.261719 L 2673.730469 240.261719 "/>
<path fill-rule="nonzero" fill="rgb(12.860107%, 11.213684%, 11.195374%)" fill-opacity="1" d="M 2840.628906 240.261719 L 2840.628906 136.550781 L 2858.199219 136.550781 L 2858.199219 240.261719 Z M 2840.628906 117.308594 L 2840.628906 97.101562 L 2858.199219 97.101562 L 2858.199219 117.308594 L 2840.628906 117.308594 "/>
<path fill-rule="nonzero" fill="rgb(12.860107%, 11.213684%, 11.195374%)" fill-opacity="1" d="M 2952.640625 202.269531 L 2969.921875 204.519531 C 2968.03125 216.429688 2963.199219 225.761719 2955.421875 232.5 C 2947.640625 239.230469 2938.089844 242.601562 2926.761719 242.601562 C 2912.558594 242.601562 2901.160156 237.960938 2892.53125 228.691406 C 2883.898438 219.410156 2879.589844 206.109375 2879.589844 188.789062 C 2879.589844 177.601562 2881.449219 167.800781 2885.160156 159.398438 C 2888.871094 151 2894.511719 144.699219 2902.101562 140.5 C 2909.679688 136.300781 2917.941406 134.210938 2926.859375 134.210938 C 2938.121094 134.210938 2947.328125 137.050781 2954.488281 142.75 C 2961.648438 148.449219 2966.238281 156.539062 2968.261719 167.019531 L 2951.171875 169.648438 C 2949.539062 162.691406 2946.660156 157.449219 2942.53125 153.929688 C 2938.390625 150.421875 2933.398438 148.660156 2927.539062 148.660156 C 2918.679688 148.660156 2911.488281 151.828125 2905.960938 158.179688 C 2900.421875 164.53125 2897.660156 174.570312 2897.660156 188.308594 C 2897.660156 202.238281 2900.328125 212.359375 2905.660156 218.679688 C 2911 224.988281 2917.96875 228.148438 2926.558594 228.148438 C 2933.460938 228.148438 2939.21875 226.039062 2943.851562 221.800781 C 2948.46875 217.570312 2951.398438 211.058594 2952.640625 202.269531 "/>
<path fill-rule="nonzero" fill="rgb(12.860107%, 11.213684%, 11.195374%)" fill-opacity="1" d="M 2996.480469 188.398438 C 2996.480469 201.691406 2999.378906 211.628906 3005.179688 218.238281 C 3010.96875 224.851562 3018.261719 228.148438 3027.050781 228.148438 C 3035.769531 228.148438 3043.03125 224.828125 3048.828125 218.191406 C 3054.621094 211.550781 3057.519531 201.429688 3057.519531 187.820312 C 3057.519531 174.988281 3054.609375 165.28125 3048.78125 158.671875 C 3042.949219 152.058594 3035.710938 148.761719 3027.050781 148.761719 C 3018.261719 148.761719 3010.96875 152.039062 3005.179688 158.621094 C 2999.378906 165.191406 2996.480469 175.121094 2996.480469 188.398438 Z M 2978.421875 188.398438 C 2978.421875 169.199219 2983.761719 154.96875 2994.429688 145.730469 C 3003.351562 138.050781 3014.21875 134.210938 3027.050781 134.210938 C 3041.308594 134.210938 3052.960938 138.878906 3062.011719 148.21875 C 3071.058594 157.558594 3075.589844 170.46875 3075.589844 186.941406 C 3075.589844 200.289062 3073.578125 210.78125 3069.578125 218.429688 C 3065.578125 226.078125 3059.75 232.019531 3052.101562 236.261719 C 3044.449219 240.488281 3036.101562 242.601562 3027.050781 242.601562 C 3012.53125 242.601562 3000.800781 237.949219 2991.851562 228.640625 C 2982.890625 219.328125 2978.421875 205.921875 2978.421875 188.398438 "/>
<path fill-rule="nonzero" fill="rgb(12.860107%, 11.213684%, 11.195374%)" fill-opacity="1" d="M 3096.191406 240.261719 L 3096.191406 136.550781 L 3112.011719 136.550781 L 3112.011719 151.289062 C 3119.628906 139.898438 3130.628906 134.210938 3145.019531 134.210938 C 3151.269531 134.210938 3157.011719 135.328125 3162.261719 137.570312 C 3167.5 139.820312 3171.421875 142.769531 3174.019531 146.410156 C 3176.628906 150.058594 3178.449219 154.390625 3179.488281 159.398438 C 3180.140625 162.660156 3180.46875 168.351562 3180.46875 176.488281 L 3180.46875 240.261719 L 3162.890625 240.261719 L 3162.890625 177.171875 C 3162.890625 170.011719 3162.210938 164.660156 3160.839844 161.109375 C 3159.46875 157.558594 3157.050781 154.730469 3153.558594 152.609375 C 3150.078125 150.5 3146 149.441406 3141.308594 149.441406 C 3133.820312 149.441406 3127.359375 151.820312 3121.921875 156.570312 C 3116.488281 161.320312 3113.769531 170.339844 3113.769531 183.621094 L 3113.769531 240.261719 L 3096.191406 240.261719 "/>
<g clip-path="url(#clip-0)">
<g clip-path="url(#clip-1)">
<g clip-path="url(#clip-2)">
<path fill-rule="nonzero" fill="url(#radial-pattern-0)" d="M 1983.589844 4309.921875 L 1983.589844 4402.898438 L 3015.53125 4402.898438 L 3015.53125 4309.921875 Z M 1983.589844 4309.921875 "/>
</g>
</g>
</g>
<path fill-rule="nonzero" fill="rgb(12.860107%, 11.213684%, 11.195374%)" fill-opacity="1" d="M 1035.011719 2553.761719 L 2091.78125 2553.761719 L 2091.78125 3156.039062 C 2091.78125 3156.039062 1207.5 3012.78125 1035.011719 2553.761719 "/>
<path fill-rule="nonzero" fill="rgb(12.860107%, 11.213684%, 11.195374%)" fill-opacity="1" d="M 4360.421875 2655.320312 L 4360.421875 2361.5 L 2192.628906 2359.429688 L 2192.628906 3207.320312 C 2192.628906 3207.320312 2527.421875 3264.21875 2515.71875 3539.050781 C 2515.699219 3541.589844 2515.660156 3544.109375 2515.601562 3546.621094 C 2511.640625 3724.800781 2364.5 3866.5 2186.269531 3866.5 L 1942.671875 3866.5 L 1942.671875 4144.261719 L 2476.351562 4144.261719 C 2602.539062 4053.128906 2757.519531 3999.421875 2925.058594 3999.421875 C 3092.601562 3999.421875 3247.578125 4053.128906 3373.761719 4144.261719 L 3866.480469 4144.261719 L 3866.480469 3866.5 L 3584.988281 3866.5 C 3500.148438 3866.5 3418.96875 3829.519531 3365.140625 3763.949219 C 3322.5 3712 3292.511719 3639.671875 3296.351562 3539.050781 C 3319.378906 2935.511719 4360.421875 2655.320312 4360.421875 2655.320312 "/>
<path fill-rule="nonzero" fill="rgb(12.860107%, 11.213684%, 11.195374%)" fill-opacity="1" d="M 3527.078125 872.460938 L 3572.058594 1489.171875 L 3316.640625 2102.851562 C 3297.980469 2147.679688 3246.511719 2168.898438 3201.679688 2150.238281 L 2933.46875 2038.609375 C 2888.640625 2019.949219 2867.429688 1968.480469 2886.078125 1923.648438 L 3351.921875 804.421875 L 3527.078125 872.460938 "/>
<path fill-rule="nonzero" fill="rgb(12.860107%, 11.213684%, 11.195374%)" fill-opacity="1" d="M 770.1875 754.980469 L 2911.328125 1605.058594 L 3041.160156 1293.140625 L 929.164062 373.019531 C 823.191406 326.851562 699.945312 376.46875 655.527344 483.191406 C 611.109375 589.910156 662.753906 712.320312 770.1875 754.980469 "/>
</svg>
